<svg width="44" height="47" viewBox="0 0 44 47" fill="none" xmlns="http://www.w3.org/2000/svg">
<path d="M9.89453 46.2222L8.47762 45.1759L2.73105 40.9251C2.64345 40.8702 2.56789 40.7981 2.50892 40.7132C2.44996 40.6283 2.40881 40.5323 2.38797 40.4311C2.13488 38.9023 1.76089 37.3961 1.26953 35.9265C0.398112 33.0617 -0.504184 30.0941 0.332929 26.9172C1.17004 23.7403 2.47031 20.6251 3.73284 17.7021C4.28127 16.3591 5.21473 15.2084 6.41571 14.3948C9.67153 12.4118 13.0131 10.4597 16.2484 8.56249C19.4836 6.66526 22.7668 4.75088 26.0021 2.78504C30.294 0.174211 35.0251 0.0953016 39.6017 0.0163935H40.4491C42.3326 -0.0213452 43.1114 -0.0350674 43.602 0.455535C44.0274 0.887815 44.0103 1.51222 43.9828 2.54488C43.9828 2.94629 43.9588 3.44718 43.9828 4.03385C44.0034 5.4885 43.9828 6.96374 43.9828 8.39438C43.9828 9.96568 43.9828 11.5884 44 13.1975C44 13.7361 43.9657 14.5115 43.4476 15.0055C43.2298 15.1885 42.9755 15.323 42.7015 15.3999C42.4276 15.4768 42.1404 15.4944 41.8592 15.4515C41.78 15.4512 41.7008 15.457 41.6225 15.4687H41.5401C36.1812 16.045 34.9805 17.2424 34.4007 22.591L34.3766 22.8071C34.2374 23.7783 34.1915 24.7605 34.2394 25.7404C34.7232 31.3052 32.0883 35.628 29.5392 39.8067C28.932 40.805 28.3007 41.8377 27.7312 42.8669L27.5288 43.21L27.1514 43.1105C24.0637 42.1876 22.8801 40.5958 23.2403 37.7791C23.412 36.6692 23.6678 35.5739 24.0054 34.5027C24.1152 34.1276 24.2215 33.7536 24.3244 33.3808C25.1307 30.372 24.6469 27.696 23.0036 26.0424C21.3602 24.3887 18.6774 23.8947 15.6583 24.6906C12.7524 25.4557 10.3302 27.3083 8.02819 30.523C7.24254 31.6242 7.77431 35.9848 8.84471 37.1856L9.18779 37.5492C9.85818 38.2345 10.4434 38.9982 10.9306 39.8238C12.1074 42.0127 11.8741 44.0506 10.2445 45.8757L9.89453 46.2222ZM3.37604 40.1326C5.28699 41.5495 7.17735 42.9458 9.07458 44.3456L9.72299 44.8259C10.7934 43.4296 10.8723 41.9818 9.97001 40.3076C9.52014 39.5608 8.98349 38.8698 8.37127 38.2491C8.26148 38.1256 8.14826 38.0021 8.02819 37.8786C6.74164 36.4342 6.00745 31.5213 7.14304 29.9329C9.59263 26.5021 12.1966 24.5362 15.3495 23.7094C18.7322 22.8174 21.7719 23.4075 23.6829 25.3322C25.5938 27.2569 26.1736 30.2862 25.2679 33.6621C25.1684 34.0429 25.0586 34.4238 24.9488 34.8046C24.6261 35.8242 24.3807 36.8667 24.2146 37.9232C23.9368 40.1017 24.6984 41.2407 27.0039 42.0161C27.5288 41.0898 28.088 40.1738 28.6301 39.2715C31.2032 35.0413 33.6356 31.0376 33.1827 25.8194C33.128 24.7743 33.1751 23.7264 33.3234 22.6905L33.344 22.4743C33.9787 16.642 35.5603 15.0673 41.3995 14.436H41.4749C41.6147 14.4163 41.7559 14.4094 41.8969 14.4154C42.1779 14.4662 42.4678 14.4073 42.7066 14.2507C42.8713 14.0929 42.9502 13.7395 42.9399 13.2215C42.909 11.6159 42.9159 9.98626 42.9227 8.41839C42.9227 6.99119 42.9227 5.51938 42.9227 4.07502C42.9227 3.46777 42.9227 2.95658 42.9227 2.54488C42.9227 1.92048 42.957 1.32696 42.8404 1.20688C42.662 1.02848 41.6808 1.04906 40.4388 1.07308H39.588C34.9427 1.15198 30.5582 1.22746 26.5064 3.6942C23.2746 5.66347 19.9502 7.60187 16.7355 9.47851C13.5209 11.3551 10.2033 13.297 6.95778 15.2731C5.94239 15.9795 5.1535 16.965 4.6866 18.1104C3.38633 21.1192 2.15125 24.0765 1.33472 27.1779C0.573083 30.077 1.39304 32.7736 2.26103 35.628C2.74967 37.0993 3.1281 38.605 3.39319 40.1326H3.37604Z" fill="#1E2959"/>
<path d="M17.5828 33.6932C16.0835 33.6932 14.574 33.6932 13.0713 33.652C12.7984 33.6323 12.5405 33.5197 12.3405 33.333C12.2075 33.2206 12.101 33.0802 12.0286 32.9219C11.9563 32.7635 11.9198 32.5911 11.922 32.417C11.9226 32.2444 11.9617 32.0742 12.0365 31.9187C12.1113 31.7632 12.2199 31.6263 12.3542 31.5181C12.5442 31.3458 12.785 31.2398 13.0404 31.2162C14.2 31.1613 15.3802 31.1682 16.5192 31.1784C16.9343 31.1784 17.3495 31.1784 17.768 31.1784H18.9173C19.9877 31.1784 21.0959 31.1613 22.1903 31.2162C22.5271 31.2603 22.8385 31.419 23.072 31.6656C23.1736 31.759 23.2553 31.8719 23.3124 31.9975C23.3695 32.1232 23.4007 32.259 23.4042 32.397C23.4078 32.5349 23.3835 32.6722 23.3329 32.8005C23.2823 32.9289 23.2064 33.0458 23.1098 33.1443C22.9963 33.2853 22.856 33.4024 22.697 33.489C22.538 33.5756 22.3635 33.6298 22.1835 33.6486C20.667 33.6806 19.1335 33.6955 17.5828 33.6932ZM13.085 32.2454C13.085 32.2454 13.0576 32.2454 12.9855 32.3175C12.9699 32.3311 12.9575 32.348 12.9492 32.367C12.9409 32.386 12.9369 32.4065 12.9375 32.4273C12.937 32.4493 12.9414 32.4711 12.9503 32.4913C12.9592 32.5114 12.9724 32.5294 12.9889 32.5439C13.0226 32.5796 13.0636 32.6077 13.109 32.6262C16.1041 32.6777 19.1506 32.6777 22.1286 32.6262C22.2189 32.5665 22.3018 32.4962 22.3756 32.417C22.3 32.3467 22.213 32.2899 22.1183 32.2489C21.065 32.194 19.9706 32.2043 18.9139 32.2111H16.5124C15.3939 32.1974 14.2343 32.1905 13.085 32.2454Z" fill="#5D6EBF"/>
<path d="M18.8865 37.944C16.8967 37.944 14.8794 37.944 12.8827 37.9096C12.611 37.8895 12.3571 37.7669 12.1725 37.5666C11.955 37.3669 11.8204 37.0927 11.7957 36.7984C11.7709 36.5042 11.8576 36.2114 12.0387 35.9781C12.1221 35.8466 12.2337 35.7352 12.3654 35.6522C12.4971 35.5691 12.6457 35.5164 12.8003 35.4978C16.31 35.4361 19.4355 35.4326 22.3585 35.4978C22.8114 35.4978 23.127 35.8649 23.4083 36.184L23.4701 36.256C23.6074 36.4137 23.6934 36.6094 23.7167 36.8172C23.7399 37.025 23.6994 37.2349 23.6004 37.419L23.1476 37.1755L23.597 37.4259C23.5079 37.5816 23.3797 37.7113 23.225 37.8022C23.0704 37.8931 22.8947 37.9419 22.7153 37.944H18.8865V37.944ZM12.9513 36.8838C15.6136 36.9182 18.3205 36.9147 20.9416 36.9113H22.6913L22.6227 36.8564C22.5211 36.73 22.406 36.6149 22.2796 36.5133C19.408 36.4619 16.3409 36.4653 12.8998 36.5133L12.8312 36.5991C12.809 36.6303 12.7991 36.6686 12.8035 36.7066C12.808 36.7447 12.8264 36.7797 12.8552 36.8049C12.8849 36.8339 12.9171 36.8603 12.9513 36.8838Z" fill="#5D6EBF"/>
<path d="M15.1434 42.3009C14.4573 42.3009 13.73 42.3009 13.0266 42.2529C12.7577 42.2268 12.5047 42.1136 12.3062 41.9304C12.1791 41.8252 12.0756 41.6945 12.0023 41.5468C11.929 41.399 11.8876 41.2375 11.8808 41.0727C11.8721 40.9062 11.8982 40.7397 11.9572 40.5838C12.0163 40.4279 12.1071 40.286 12.2238 40.167C12.4263 39.9359 12.7103 39.7921 13.0164 39.7656C16.1041 39.7038 19.2261 39.7038 22.3207 39.7656C22.7598 39.7656 23.0548 40.1532 23.247 40.4071C23.4031 40.6172 23.4734 40.8789 23.4434 41.1389C23.4135 41.399 23.2856 41.6378 23.0857 41.8069C22.8291 42.0568 22.4978 42.2159 22.1422 42.2597C20.9964 42.3146 19.8299 42.3043 18.7115 42.2975H17.4798H16.3099L15.1434 42.3009ZM13.085 40.7948C13.0373 40.8248 12.9935 40.8605 12.9546 40.9011C12.938 40.9177 12.9252 40.9375 12.9169 40.9594C12.9086 40.9813 12.9051 41.0047 12.9066 41.0281C12.9064 41.0491 12.911 41.0698 12.9199 41.0888C12.9288 41.1078 12.9418 41.1246 12.958 41.1379C12.9992 41.1735 13.044 41.2045 13.0918 41.2305C14.1451 41.282 15.2429 41.2717 16.3065 41.2648H17.4867H18.7252C19.8368 41.2648 20.9861 41.282 22.1045 41.2271C22.2326 41.1764 22.3493 41.1006 22.4476 41.0041C22.3515 40.9046 22.2829 40.8291 22.2383 40.7914C19.1849 40.733 16.1075 40.733 13.085 40.7948Z" fill="#5D6EBF"/>
<path d="M15.2327 44.3491C14.5465 44.3491 13.8604 44.3491 13.1742 44.2942C12.9242 44.2716 12.686 44.1775 12.4881 44.0232C12.3161 43.9024 12.1793 43.738 12.0919 43.5469C12.0044 43.3557 11.9695 43.1447 11.9906 42.9356C12.0095 42.729 12.0831 42.5312 12.2036 42.3624C12.3242 42.1936 12.4875 42.0599 12.6768 41.975C12.8201 41.9052 12.9771 41.8677 13.1365 41.8652C16.3477 41.8069 19.2639 41.8103 22.0565 41.8652C22.4114 41.8994 22.7429 42.0573 22.9931 42.3112C23.1093 42.4154 23.2002 42.5445 23.2591 42.689C23.3179 42.8334 23.3432 42.9894 23.333 43.145C23.3227 43.3007 23.2772 43.452 23.1999 43.5875C23.1226 43.7229 23.0156 43.8391 22.8868 43.9271C22.6103 44.1314 22.2849 44.2592 21.9433 44.2976C20.9141 44.3594 19.8608 44.3491 18.8556 44.3388H17.6754H16.4746L15.2327 44.3491ZM13.1399 42.8945C13.1263 42.8923 13.1124 42.8923 13.0988 42.8945C13.0749 42.9044 13.0544 42.921 13.0398 42.9423C13.0252 42.9636 13.0171 42.9887 13.0164 43.0145C13.0127 43.0454 13.0174 43.0767 13.0301 43.1051C13.0428 43.1335 13.063 43.158 13.0885 43.1758C13.1304 43.2139 13.1811 43.241 13.236 43.2547C14.2961 43.3199 15.3871 43.3096 16.4403 43.2993H17.6514C18.0459 43.2993 18.4371 43.2993 18.8282 43.2993C19.8265 43.2993 20.8558 43.3199 21.8576 43.2581C22.017 43.2217 22.1667 43.1515 22.2967 43.0523C22.2102 42.9795 22.1115 42.9225 22.0051 42.8842C19.2296 42.8258 16.3237 42.8224 13.1262 42.8842L13.1399 42.8945Z" fill="#5D6EBF"/>
<path d="M19.9914 29.3943H18.7083H17.5212H16.3033C15.2329 29.3943 14.1282 29.4114 13.0337 29.3531C12.806 29.3359 12.5885 29.2511 12.4093 29.1095C12.255 28.9994 12.1291 28.854 12.0423 28.6854C11.9555 28.5168 11.9102 28.3299 11.9102 28.1403C11.9102 27.9507 11.9555 27.7638 12.0423 27.5952C12.1291 27.4266 12.255 27.2812 12.4093 27.1711C12.5887 27.0346 12.8052 26.9557 13.0303 26.9447C16.118 26.8829 19.1851 26.8761 22.1768 26.9241C22.5347 26.9623 22.8646 27.1352 23.0997 27.4078C23.1998 27.5042 23.2794 27.6198 23.3337 27.7478C23.3879 27.8757 23.4157 28.0133 23.4153 28.1523C23.413 28.2903 23.3829 28.4264 23.3269 28.5525C23.2709 28.6787 23.1901 28.7922 23.0894 28.8865C22.86 29.1458 22.5442 29.3128 22.2008 29.3565C21.4735 29.384 20.729 29.3943 19.9914 29.3943ZM17.5212 28.365H18.7186C19.8507 28.365 21.0206 28.365 22.1493 28.3273C22.2356 28.2701 22.316 28.2046 22.3895 28.1317C22.3132 28.0563 22.2251 27.9937 22.1288 27.9465C19.1851 27.9019 16.1214 27.9087 13.0578 27.9705L12.9994 28.0117C12.9785 28.0253 12.9614 28.0442 12.95 28.0665C12.9386 28.0888 12.9332 28.1136 12.9342 28.1386C12.933 28.1646 12.9383 28.1905 12.9496 28.2139C12.961 28.2373 12.9782 28.2574 12.9994 28.2724C13.0262 28.2943 13.0563 28.3117 13.0886 28.3239C14.1384 28.3788 15.2294 28.3719 16.2861 28.3616L17.5212 28.365Z" fill="#5D6EBF"/>
<path d="M17.7853 35.8238C16.2758 35.8238 14.7594 35.8067 13.2533 35.7724C13.0555 35.7653 12.8629 35.7074 12.6941 35.6043C12.505 35.4988 12.3491 35.3428 12.2437 35.1538C12.1382 34.9647 12.0875 34.7501 12.0971 34.5339C12.1065 34.3098 12.1783 34.0928 12.3043 33.9073C12.4304 33.7218 12.6058 33.5752 12.8107 33.484C12.9757 33.4062 13.1536 33.3596 13.3356 33.3468C14.3648 33.285 15.4215 33.2953 16.4233 33.3056H17.6207H18.7768C19.8061 33.3056 20.8662 33.2816 21.916 33.3434C22.2574 33.3824 22.5827 33.5102 22.8595 33.7139C22.992 33.8011 23.102 33.9183 23.1807 34.056C23.2594 34.1937 23.3045 34.348 23.3123 34.5064C23.3246 34.662 23.2998 34.8183 23.2402 34.9626C23.1806 35.1069 23.0878 35.235 22.9693 35.3367C22.7117 35.5875 22.3767 35.7435 22.0189 35.7792C20.6329 35.8032 19.2023 35.8238 17.7853 35.8238ZM15.2843 34.328C14.653 34.328 14.0218 34.328 13.3974 34.3726C13.3403 34.3801 13.2848 34.3963 13.2327 34.4206C13.2016 34.4339 13.175 34.4558 13.1562 34.4838C13.1373 34.5118 13.1269 34.5447 13.1263 34.5785C13.1236 34.6049 13.129 34.6316 13.1419 34.6549C13.1548 34.6782 13.1745 34.6971 13.1984 34.7088C13.2237 34.7249 13.2515 34.7365 13.2807 34.7431C16.1797 34.8083 19.1131 34.8117 21.9949 34.7431C22.1123 34.6972 22.2186 34.627 22.3071 34.5373C22.1702 34.461 22.0236 34.4033 21.8714 34.3657C20.8422 34.304 19.8129 34.3143 18.7837 34.328H17.6172H16.4096H15.2843Z" fill="#5D6EBF"/>
<path d="M19.9466 31.4906H18.6017H17.425H16.1967C15.1298 31.4906 14.0251 31.4906 12.9341 31.4563C12.7466 31.4459 12.5659 31.3829 12.4126 31.2745C12.2587 31.1714 12.1315 31.0334 12.0412 30.8717C11.9509 30.71 11.9002 30.5293 11.8932 30.3442C11.8862 30.1592 11.923 29.9751 12.0008 29.807C12.0785 29.639 12.195 29.4917 12.3405 29.3772C12.4987 29.2413 12.6982 29.1627 12.9066 29.1542C15.9943 29.1028 19.1404 29.0959 22.2761 29.1371C22.5705 29.1614 22.8461 29.2918 23.0515 29.5042C23.1601 29.599 23.247 29.7161 23.3062 29.8475C23.3654 29.979 23.3955 30.1217 23.3945 30.2658C23.3917 30.4118 23.3578 30.5556 23.2951 30.6875C23.2324 30.8194 23.1423 30.9365 23.0309 31.0309C22.7876 31.2683 22.4729 31.419 22.1354 31.4597C21.415 31.4803 20.6842 31.4906 19.9466 31.4906ZM17.4284 30.4614H18.612C19.751 30.4614 20.9278 30.4785 22.0771 30.4236C22.1827 30.3804 22.2784 30.3162 22.3584 30.2349C22.2898 30.1903 22.2487 30.1698 22.2315 30.1595C19.1438 30.1183 16.0252 30.1252 12.9855 30.1766C12.9663 30.1917 12.9507 30.211 12.94 30.233C12.9293 30.255 12.9238 30.2791 12.9238 30.3036C12.9246 30.3237 12.9299 30.3435 12.9394 30.3613C12.9489 30.3791 12.9623 30.3946 12.9787 30.4065L13.0027 30.4236C14.0594 30.4648 15.1435 30.4614 16.1899 30.4545L17.4284 30.4614Z" fill="#5D6EBF"/>
<path d="M17.1814 40.0333C15.8091 40.0333 14.4162 40.0333 13.0645 39.999C12.9458 39.9944 12.8292 39.9664 12.7214 39.9167C12.5098 39.8211 12.3325 39.663 12.2135 39.4637C12.0945 39.2643 12.0394 39.0333 12.0558 38.8016C12.0672 38.5578 12.1533 38.3233 12.3024 38.13C12.4515 37.9366 12.6565 37.7939 12.8895 37.7209C12.9881 37.6881 13.0909 37.6696 13.1948 37.6661C14.2927 37.6146 15.4077 37.6215 16.4849 37.6317H17.7132H18.8693C19.9363 37.6317 21.0342 37.6317 22.1217 37.6661C22.4195 37.702 22.7013 37.8209 22.9348 38.0091C23.0579 38.0987 23.1595 38.2144 23.2325 38.3479C23.3055 38.4815 23.3479 38.6295 23.3568 38.7815C23.3656 38.9334 23.3407 39.0854 23.2837 39.2265C23.2268 39.3676 23.1393 39.4944 23.0275 39.5976C22.8023 39.8287 22.5015 39.9712 22.1801 39.999C20.4955 40.0161 18.835 40.0333 17.1814 40.0333ZM13.1022 38.9698C16.0698 39.0212 19.1095 39.0144 22.132 38.9698C22.1974 38.9238 22.2603 38.8746 22.3207 38.8222C22.2366 38.7686 22.1437 38.7303 22.0463 38.709C20.9861 38.661 19.902 38.6678 18.8522 38.6747H17.6308H16.4506C15.3871 38.6747 14.2858 38.6576 13.212 38.7056H13.1708C13.1375 38.7178 13.1087 38.7397 13.0879 38.7684C13.0671 38.7972 13.0554 38.8314 13.0542 38.8668C13.0507 38.8868 13.0535 38.9074 13.062 38.9258C13.0706 38.9442 13.0846 38.9595 13.1022 38.9698V38.9698Z" fill="#5D6EBF"/>
</svg>
