<svg width="66" height="62" viewBox="0 0 66 62" fill="none" xmlns="http://www.w3.org/2000/svg">
<g filter="url(#filter0_d_74_87)">
<path d="M33.0424 42.0044H13.8169C13.5079 42.0044 13.1502 42.102 12.9016 41.9789C12.4978 41.736 12.1175 41.456 11.7656 41.1426C12.1327 40.8801 12.4625 40.4805 12.8737 40.3923C13.4591 40.2622 14.0933 40.3574 14.9807 40.3574C14.5277 39.7999 14.1119 39.4514 13.9307 39.0054C13.7913 38.6686 13.9516 38.2063 13.9795 37.7997C14.3581 37.8439 14.7391 37.8741 15.1131 37.9438C15.2061 37.96 15.2943 38.0901 15.3454 38.1761C16.5511 40.1878 18.3886 40.4666 20.5676 40.3899C24.6887 40.2436 28.8191 40.3458 32.9448 40.3481C34.6383 40.3481 34.6383 40.3481 34.8869 42.1647L41.41 42.7757C41.41 40.7523 41.41 38.8265 41.41 36.9239C41.41 35.2421 41.496 35.1561 43.1732 35.1515C44.7459 35.1515 46.3209 35.1515 48.0818 35.1515C48.0818 33.4301 48.0818 31.8318 48.0818 30.2313C48.0818 28.8374 48.1956 28.7213 49.608 28.7166C51.42 28.7166 53.2343 28.7515 55.0439 28.7004C56.0545 28.6725 56.4006 29.0628 56.389 30.0594C56.3518 33.5277 56.4053 37.0006 56.3565 40.4689C56.3425 41.3981 56.6561 41.7048 57.5528 41.6421C58.3972 41.5583 59.2484 41.5723 60.0896 41.6839C60.4381 41.7419 60.97 42.2553 60.9793 42.5759C61.056 44.9268 61.0211 47.2801 61.0211 49.631C61.0211 50.4417 60.5565 50.6787 59.8201 50.6717C57.8548 50.6508 55.8872 50.6578 53.9219 50.6555H51.7568C51.6709 50.832 51.5756 50.9342 51.578 51.0341C51.6291 53.2015 51.4897 53.1876 49.2178 53.1713C47.6753 53.1597 46.1327 53.1458 44.5902 53.1713C43.6122 53.1899 43.1964 52.7787 43.2173 51.7775C43.2568 50.005 43.1895 48.2302 43.2452 46.4577C43.2661 45.7283 43.0292 45.187 42.3694 45.036C40.6225 44.6365 38.857 44.3112 37.0915 44.0116C36.348 43.9253 35.6005 43.8788 34.852 43.8722V46.913C35.247 46.9386 35.6187 46.9804 35.9927 46.9827C37.3865 46.9827 38.7803 46.9618 40.1556 46.9967C40.8316 47.0153 41.8676 46.6877 41.8955 47.7656C41.9234 48.8435 40.8943 48.5787 40.209 48.5903C38.7826 48.6158 37.354 48.5531 35.9323 48.6228C35.4677 48.646 35.0216 48.9806 34.5617 49.1525C34.2155 49.2825 33.8647 49.48 33.5024 49.48C25.7155 49.4986 17.938 49.5311 10.1372 49.48C9.26695 49.4819 8.4063 49.2984 7.6126 48.9415C6.8189 48.5847 6.11037 48.0628 5.53423 47.4106C4.95809 46.7584 4.52758 45.9909 4.27138 45.1592C4.01519 44.3276 3.9392 43.4509 4.04847 42.5875C4.5758 37.9182 5.17515 33.2559 5.76985 28.5935C5.8617 27.7617 6.14079 26.9615 6.58618 26.253C7.03157 25.5444 7.63168 24.946 8.34146 24.5026C10.5855 23.1088 12.9875 21.9845 15.3106 20.6998C16.0981 20.2608 16.809 19.6823 17.557 19.1712C17.9101 18.9389 18.4188 18.4255 18.5977 18.5208C18.9624 18.7159 19.2133 19.2177 19.4038 19.6312C20.0078 20.9577 20.3911 22.4189 21.167 23.6245C23.8315 27.7851 29.4393 27.8199 31.9831 23.5943C33.047 21.8265 33.4652 19.6707 34.1667 17.6868C34.2573 17.4383 34.1946 17.0944 34.3456 16.9156C34.5663 16.6577 35.0123 16.2883 35.1935 16.365C35.5002 16.4974 35.7441 16.9086 35.8904 17.2571C35.9764 17.4685 35.8138 17.7751 35.772 18.0422C35.5629 19.3919 35.8997 19.9286 37.203 20.4814C38.9011 21.2039 40.6527 21.8427 42.2579 22.7371C43.6219 23.5249 44.8956 24.4597 46.0561 25.5248C47.1177 26.4749 47.6241 27.7665 47.6009 29.2556C47.58 30.4473 47.7635 31.646 47.7078 32.8354C47.6869 33.2419 47.2153 33.6299 46.9481 34.0248C46.6554 33.6508 46.1583 33.3023 46.1072 32.8958C45.9828 31.7846 45.9456 30.6653 45.9957 29.5483C46.0145 28.9686 45.908 28.3916 45.6834 27.8568C45.4589 27.322 45.1217 26.842 44.6948 26.4493C43.1058 24.8766 41.1638 23.894 38.9453 22.9648C38.6456 24.7582 38.3598 26.4493 38.0811 28.1359C37.9742 28.7817 37.9045 29.4345 37.7814 30.0756C37.6722 30.6494 37.5491 31.3324 36.7569 31.1907C36.0112 31.0559 36.0252 30.4427 36.1367 29.8154C36.4294 28.1452 36.6013 26.4493 36.9916 24.8069C37.2959 23.5432 36.9916 22.6605 35.9741 21.9333C35.6976 21.7336 35.4584 21.4827 35.0797 21.1482C33.9507 24.1007 32.4732 26.6747 29.3882 27.885L30.6032 29.9293C30.7379 29.4228 30.7635 28.9304 30.9981 28.5726C31.0499 28.4894 31.1098 28.4116 31.177 28.3403C31.6416 27.8571 32.4849 28.0824 32.5453 28.7468C32.5547 28.8022 32.5547 28.8587 32.5453 28.9141C31.8158 32.0641 31.019 35.1979 30.1804 38.3224C30.0852 38.6732 29.6136 38.9264 29.3162 39.2238C29.0305 38.873 28.5566 38.5524 28.4892 38.1621C28.2151 36.5801 28.0664 34.9772 27.869 33.3534H25.6621C25.4042 34.8983 25.1975 36.4895 24.8444 38.0529C24.7514 38.485 24.2938 38.8358 24.0034 39.2145C23.6991 38.8776 23.2136 38.5872 23.116 38.197C22.3494 35.1352 21.6664 32.0525 20.9347 28.9815C20.7837 28.3542 20.7279 27.7084 21.4969 27.6596C21.8221 27.6387 22.3843 28.2009 22.5004 28.5889C22.965 30.1639 23.2833 31.7784 23.6921 33.5253C24.3426 32.099 24.324 32.0177 23.6015 30.97C22.8558 29.8967 23.2229 28.9443 24.1869 27.9988C20.8023 26.835 19.2226 24.2169 18.1308 21.1969C16.1213 22.4955 15.9053 22.9439 16.2932 25.023C16.5906 26.612 16.9646 28.1916 17.1737 29.7922C17.2318 30.2382 16.9298 31.0559 16.6138 31.1605C15.8867 31.3928 15.7125 30.7075 15.5986 30.1058C15.2455 28.2474 14.8808 26.4029 14.5161 24.5514C14.4209 24.0729 14.314 23.5966 14.1862 23.0019C11.8539 23.9846 9.57035 24.9417 8.25783 27.0045C7.50748 28.1986 7.32861 29.8108 7.09631 31.2673C6.55968 34.9238 6.16709 38.6035 5.68389 42.2693C5.27272 45.345 7.14277 47.7888 10.2254 47.8214C17.5895 47.8957 24.9559 47.8492 32.3199 47.8446C32.5555 47.8209 32.7886 47.7774 33.0168 47.7145L33.0424 42.0044ZM45.0409 49.552V51.3965H49.8403V49.5543L45.0409 49.552ZM45.0037 45.8351V47.6796H49.8403V45.8375L45.0037 45.8351ZM54.7187 36.6475C53.2134 36.6475 51.7615 36.615 50.3049 36.6824C50.1028 36.6824 49.773 37.1911 49.7753 37.4606C49.7753 37.7928 50.0517 38.3898 50.2399 38.4084C51.7197 38.485 53.2041 38.4502 54.7141 38.4502L54.7187 36.6475ZM59.3648 43.2775C58.0407 43.2775 56.8513 43.2961 55.6642 43.2775C54.951 43.2612 54.8999 43.7421 55.0045 44.2067C55.0951 44.6086 55.3506 45.273 55.5783 45.2939C56.8234 45.4007 58.0802 45.345 59.3648 45.345V43.2775ZM54.7466 47.0176C55.0393 47.819 55.1833 48.876 55.4853 48.9225C56.7421 49.1153 58.0407 49.0038 59.3184 49.0038V47.0176H54.7466ZM54.7187 33.5439H49.8403V34.9377H54.7187V33.5439ZM54.7652 41.6444C54.6723 40.9033 55.1671 40.1205 54.0985 40.0856C52.8765 40.0461 51.65 40.0415 50.4304 40.1088C50.1981 40.1205 49.7846 40.5525 49.8008 40.7663C49.8217 41.0706 50.1516 41.5933 50.37 41.6049C51.7661 41.6839 53.1762 41.6397 54.7559 41.6397L54.7652 41.6444ZM43.1778 38.3921H48.0074V36.8635H43.1685L43.1778 38.3921ZM28.6797 29.8619C26.9142 27.7828 26.4589 27.7944 25.0604 29.6807L26.6865 31.7714L28.6797 29.8619ZM54.7118 30.4032H49.8403V31.7296H54.6955L54.7118 30.4032ZM47.9587 40.16H43.2429C42.906 41.1403 43.2289 41.4934 44.1605 41.4562C45.1069 41.4074 46.0552 41.4074 47.0016 41.4562C47.9819 41.505 48.3002 41.1472 47.9494 40.153L47.9587 40.16ZM51.5501 43.2844C51.2073 43.2588 50.8629 43.2635 50.521 43.2984C50.4414 43.3136 50.3681 43.3522 50.3105 43.4091C50.2528 43.4661 50.2134 43.5389 50.1972 43.6183C50.181 43.6977 50.1888 43.7802 50.2196 43.8551C50.2503 43.9301 50.3027 43.9943 50.37 44.0394L50.4443 44.0882C50.7997 44.3205 51.3735 44.4529 51.4804 44.7619C51.7824 45.5959 52.5211 45.4588 52.8742 45.2497C53.2273 45.0407 53.3388 44.3205 53.3179 43.8559C53.3179 43.6538 52.7139 43.4285 52.3562 43.2984C52.1007 43.2078 51.808 43.2775 51.5408 43.2775L51.5501 43.2844ZM43.2452 43.0754C43.2098 43.1657 43.2006 43.2642 43.2187 43.3596C43.2368 43.4549 43.2814 43.5432 43.3474 43.6143C43.4845 43.7607 43.6215 43.8977 43.7656 43.907C45.092 43.9999 46.4208 44.0325 47.7496 44.0441C47.8565 44.0441 48.0888 43.6863 48.0493 43.5655C47.9842 43.3727 47.7473 43.1009 47.5847 43.1009C46.1235 43.0521 44.6809 43.0684 43.2359 43.0684L43.2452 43.0754ZM53.5107 46.7922C52.6442 47.0385 51.938 47.0385 51.6523 47.3846C51.42 47.6657 51.5571 48.4532 51.8056 48.8412C51.9404 49.0549 52.9346 49.0735 53.0345 48.8876C53.304 48.3766 53.3249 47.7354 53.5014 46.7806L53.5107 46.7922ZM30.4592 30.5867C29.3859 31.2999 29.0653 32.099 29.7623 33.3256L30.4592 30.5867Z" fill="#5AE1F9"/>
<path d="M30.7171 9.94186C28.0409 12.4205 25.2161 14.4416 22.0428 15.854C20.1542 16.6996 18.1657 17.3315 16.2097 18.0191C15.299 18.3397 14.7345 18.0191 14.6091 16.9969C13.9261 11.3961 15.1643 6.40154 19.5014 2.53831C22.6027 -0.223785 26.2382 -0.676779 30.1688 0.912184C30.5722 1.07015 30.9859 1.20054 31.407 1.30246C34.5756 2.1132 36.8453 4.81025 37.0869 8.47834C37.2216 10.5342 37.0241 12.625 36.8383 14.6878C36.7175 16.0375 35.9486 16.3395 35.0008 15.3848C33.7417 14.1048 32.6568 12.6529 31.5162 11.2567C31.2227 10.8355 30.9558 10.3964 30.7171 9.94186V9.94186ZM35.5374 14.3324C35.4003 12.4507 35.707 10.5133 35.4677 8.6456C35.0728 5.56292 33.6093 3.28866 30.2571 2.74971C29.9988 2.67414 29.7501 2.5689 29.5161 2.4361C26.064 0.96329 22.9395 1.54637 20.2378 4.08314C17.4269 6.72444 16.1957 10.0975 16.0563 13.905C16.0308 14.6762 16.0563 15.4475 16.0563 16.3744C21.5596 14.7645 26.0663 12.158 29.8947 8.3831C30.9587 7.3354 31.256 7.42135 32.0157 8.72226C33.133 10.6272 34.3875 12.4484 35.5374 14.3324V14.3324Z" fill="#5AE1F9"/>
<path d="M19.5687 29.7922C19.7592 30.2127 20.0055 30.5821 20.0752 30.984C20.1077 31.1675 19.815 31.4277 19.6361 31.6228C18.0773 33.3233 18.075 33.3209 19.2528 35.3629C19.7174 36.1597 20.2471 36.9286 20.6071 37.7696C20.7605 38.125 20.5537 38.6361 20.5096 39.0751C20.0891 38.9334 19.4688 38.9195 19.283 38.6268C18.2516 37.0006 17.3014 35.335 16.3815 33.6485C16.2328 33.3744 16.2143 32.8145 16.3815 32.6101C17.1365 31.7413 17.9821 30.9514 18.8091 30.15C18.9438 30.0245 19.1529 29.9897 19.5687 29.7922Z" fill="#5AE1F9"/>
<path d="M35.4072 33.1257C34.7707 32.5566 34.1249 32.1059 33.658 31.5112C33.6181 31.4596 33.586 31.4025 33.5627 31.3416C33.5213 31.2149 33.5122 31.0798 33.5364 30.9487C33.5605 30.8176 33.617 30.6946 33.7008 30.5909C33.7847 30.4872 33.8931 30.4062 34.0163 30.3551C34.1394 30.3041 34.2734 30.2846 34.406 30.2986L34.7521 30.3311C34.7823 30.3311 34.8079 30.3799 34.8357 30.4078C37.9022 33.5764 37.6884 32.308 35.7115 35.9041C35.2469 36.745 34.7544 37.5674 34.2759 38.399C33.9785 38.9171 33.6371 39.4862 32.9471 39.096C32.1689 38.6708 32.5661 38.0459 32.8704 37.5116C33.6626 36.1225 34.4757 34.7333 35.4072 33.1257Z" fill="#5AE1F9"/>
</g>
<defs>
<filter id="filter0_d_74_87" x="0" y="0" width="65.0291" height="61.1741" filterUnits="userSpaceOnUse" colorInterpolationFilters="sRGB">
<feFlood floodOpacity="0" result="BackgroundImageFix"/>
<feColorMatrix in="SourceAlpha" type="matrix" values="0 0 0 0 0 0 0 0 0 0 0 0 0 0 0 0 0 0 127 0" result="hardAlpha"/>
<feOffset dy="4"/>
<feGaussianBlur stdDeviation="2"/>
<feComposite in2="hardAlpha" operator="out"/>
<feColorMatrix type="matrix" values="0 0 0 0 0 0 0 0 0 0 0 0 0 0 0 0 0 0 0.25 0"/>
<feBlend mode="normal" in2="BackgroundImageFix" result="effect1_dropShadow_74_87"/>
<feBlend mode="normal" in="SourceGraphic" in2="effect1_dropShadow_74_87" result="shape"/>
</filter>
</defs>
</svg>
