<svg width="35" height="31" viewBox="0 0 35 31" fill="none" xmlns="http://www.w3.org/2000/svg">
<path d="M27.8274 0C28.0294 0.0355281 28.2359 0.0621744 28.438 0.104364C29.4605 0.31351 30.3807 0.866018 31.0459 1.67019C31.7112 2.47436 32.0814 3.48183 32.0952 4.52539C32.0952 4.74744 32.0952 4.98947 32.0952 5.24927L29.8036 5.52462V5.08051C29.8362 4.6344 29.7842 4.18614 29.6504 3.75932C29.4858 3.33756 29.1999 2.97406 28.8288 2.71479C28.4577 2.45551 28.018 2.31209 27.5654 2.30266C26.6039 2.30266 25.6402 2.30266 24.6787 2.30266H4.70525C4.24668 2.27737 3.79113 2.39099 3.39815 2.62868C3.00517 2.86637 2.69303 3.21707 2.50251 3.63497C2.35272 3.95486 2.28045 4.30557 2.29156 4.65862C2.29156 6.47647 2.29156 8.29507 2.29156 10.1144V26.2908C2.26905 26.7448 2.38645 27.1948 2.62789 27.58C2.86932 27.9652 3.22317 28.267 3.64163 28.4447C3.9234 28.5459 4.21521 28.6166 4.51207 28.6556C4.58142 28.6634 4.65144 28.6634 4.72079 28.6556C12.2705 28.6556 19.8276 28.6556 27.3922 28.6556C27.712 28.6707 28.0315 28.619 28.3302 28.5039C28.629 28.3888 28.9005 28.2127 29.1276 27.9869C29.3546 27.7612 29.5322 27.4906 29.6489 27.1925C29.7657 26.8943 29.8191 26.5752 29.8058 26.2553C29.8058 24.2302 29.8058 22.2051 29.8058 20.1777C29.8058 19.9979 29.8436 19.9357 30.0279 19.9179C30.7096 19.8513 31.3891 19.7581 32.0952 19.6715V19.8802C32.0952 22.0207 32.0952 24.1606 32.0952 26.2997C32.1035 26.9096 31.99 27.515 31.7615 28.0805C31.533 28.6461 31.194 29.1604 30.7644 29.5933C30.3347 30.0263 29.823 30.3692 29.2592 30.6021C28.6955 30.8349 28.0909 30.953 27.481 30.9494H4.61865C3.4903 30.9593 2.39809 30.5519 1.55176 29.8056C0.705432 29.0593 0.164664 28.0266 0.0333079 26.9059C0.0333079 26.857 0.0111025 26.8104 0 26.7615V4.19231C0 4.1368 0.026646 4.08351 0.035528 4.03022C0.319753 2.18498 1.33452 0.92151 3.07984 0.270902C3.46827 0.152979 3.86449 0.0624555 4.26559 0H27.8274Z" fill="#1E2959"/>
<path d="M29.9079 9.78125L34.1269 14.0002C34.0891 14.038 34.0447 14.089 33.9959 14.1357C30.7939 17.3391 27.5904 20.5411 24.3855 23.7416C24.3138 23.815 24.2188 23.8613 24.1168 23.8726C22.7845 23.8726 21.4367 23.8726 20.0977 23.8726H19.9756V23.6927C19.9756 22.4226 19.9756 21.1502 19.9889 19.8801C19.9932 19.7712 20.0375 19.6676 20.1133 19.5892C23.3434 16.3458 26.572 13.1113 29.7991 9.88561C29.8435 9.84564 29.879 9.8079 29.9079 9.78125ZM23.2464 21.8008C23.4516 21.7721 23.6587 21.758 23.8659 21.7587C24.0675 21.7737 24.2697 21.7377 24.4537 21.6539C24.6377 21.57 24.7975 21.4411 24.9184 21.279C25.2471 20.9038 25.6268 20.5707 25.9732 20.2287L23.6705 17.9394C23.6586 17.9446 23.6474 17.9514 23.6372 17.9594L22.2627 19.3316C22.2352 19.3572 22.2145 19.3892 22.2028 19.4249C22.1472 19.7824 22.0939 20.1399 22.0384 20.5041H23.3397L23.2464 21.8008ZM24.7208 17.6707C24.8382 17.5957 24.9503 17.5126 25.0561 17.422C26.7526 15.7329 28.4476 14.0402 30.1411 12.3437C30.1921 12.2967 30.2383 12.2447 30.2787 12.1883C30.3263 12.1209 30.3474 12.0384 30.338 11.9565C30.3286 11.8745 30.2893 11.799 30.2277 11.7442C30.1691 11.6909 30.0938 11.6598 30.0148 11.6562C29.9357 11.6525 29.8579 11.6766 29.7947 11.7242C29.7456 11.7636 29.6996 11.8066 29.657 11.853L24.5898 16.9202C24.5409 16.969 24.4654 17.0134 24.4521 17.0712C24.4111 17.1843 24.4034 17.3068 24.4299 17.4242C24.4699 17.5197 24.6031 17.5774 24.7186 17.6707H24.7208Z" fill="#5AE1F9"/>
<path d="M16.2584 9.18405C12.975 9.18405 9.69091 9.18405 6.40604 9.18405C6.23733 9.19015 6.06857 9.17372 5.90421 9.13519C5.6479 9.0611 5.42565 8.89955 5.27607 8.67863C5.1265 8.4577 5.05904 8.19135 5.08543 7.92586C5.11182 7.66036 5.23039 7.41251 5.42053 7.22535C5.61068 7.03819 5.86038 6.92356 6.12626 6.90137C6.20175 6.90137 6.27725 6.90137 6.34831 6.90137H26.1841C26.8347 6.90137 27.2943 7.22556 27.4187 7.78957C27.456 7.95089 27.4579 8.1184 27.4242 8.28052C27.3904 8.44264 27.3219 8.59549 27.2233 8.72852C27.1247 8.86155 26.9983 8.97158 26.853 9.05099C26.7077 9.13041 26.5469 9.17732 26.3817 9.18849C26.2884 9.18849 26.193 9.18849 26.0997 9.18849L16.2584 9.18405Z" fill="#495CB7"/>
<path d="M13.5916 16.0476H6.28835C6.13759 16.0537 5.98711 16.0301 5.84548 15.9781C5.70386 15.926 5.57387 15.8466 5.46293 15.7443C5.352 15.6421 5.2623 15.5189 5.19895 15.382C5.1356 15.2451 5.09984 15.097 5.09372 14.9462C5.0876 14.7955 5.11123 14.645 5.16326 14.5034C5.2153 14.3617 5.29472 14.2317 5.39699 14.1208C5.49926 14.0099 5.62238 13.9202 5.75932 13.8568C5.89626 13.7935 6.04433 13.7577 6.19509 13.7516H20.8238C21.0676 13.7306 21.3117 13.7874 21.5212 13.9138C21.7307 14.0403 21.8946 14.23 21.9895 14.4555C22.0638 14.6282 22.0942 14.8166 22.0782 15.0039C22.0621 15.1912 22 15.3717 21.8974 15.5292C21.7948 15.6868 21.6548 15.8165 21.49 15.9069C21.3252 15.9974 21.1406 16.0457 20.9526 16.0476C20.3375 16.0476 19.7202 16.0476 19.1029 16.0476H13.5916Z" fill="#495CB7"/>
<path d="M9.779 22.9221C8.59103 22.9221 7.40084 22.9221 6.21287 22.9221C5.98979 22.9284 5.77032 22.8647 5.58519 22.7401C5.40005 22.6155 5.2585 22.4361 5.18034 22.2271C5.0885 22.028 5.05866 21.806 5.0947 21.5898C5.13074 21.3736 5.23098 21.1732 5.3824 21.0147C5.48996 20.8902 5.62385 20.7911 5.77439 20.7246C5.92493 20.6582 6.08835 20.6261 6.25284 20.6305C8.60362 20.6305 10.9559 20.6305 13.3096 20.6305C13.5934 20.6269 13.8684 20.7288 14.0813 20.9163C14.2943 21.1038 14.4301 21.3637 14.4625 21.6457C14.4948 21.9276 14.4214 22.2115 14.2564 22.4424C14.0914 22.6733 13.8466 22.8347 13.5694 22.8955C13.4524 22.9176 13.3332 22.9266 13.2141 22.9221H9.779Z" fill="#495CB7"/>
</svg>
